<svg width="24" height="24" viewBox="0 0 24 24" fill="none" xmlns="http://www.w3.org/2000/svg">
<path d="M12.003 0H11.997C5.3805 0 0 5.382 0 12C0 14.625 0.846 17.058 2.2845 19.0335L0.789 23.4915L5.4015 22.017C7.299 23.274 9.5625 24 12.003 24C18.6195 24 24 18.6165 24 12C24 5.3835 18.6195 0 12.003 0Z" fill="#FAFAFA"/>
<path d="M18.9858 16.9455C18.6963 17.763 17.5473 18.441 16.6308 18.639C16.0038 18.7725 15.1848 18.879 12.4278 17.736C8.90132 16.275 6.63032 12.6915 6.45332 12.459C6.28382 12.2265 5.02832 10.5615 5.02832 8.8395C5.02832 7.1175 5.90282 6.279 6.25532 5.919C6.54482 5.6235 7.02332 5.48849 7.48232 5.48849C7.63082 5.48849 7.76432 5.49599 7.88432 5.50199C8.23682 5.51699 8.41382 5.538 8.64632 6.0945C8.93582 6.792 9.64082 8.514 9.72482 8.691C9.81032 8.868 9.89582 9.108 9.77582 9.3405C9.66332 9.5805 9.56432 9.68699 9.38732 9.89099C9.21032 10.095 9.04232 10.251 8.86532 10.47C8.70332 10.6605 8.52032 10.8645 8.72432 11.217C8.92832 11.562 9.63332 12.7125 10.6713 13.6365C12.0108 14.829 13.0968 15.21 13.4853 15.372C13.7748 15.492 14.1198 15.4635 14.3313 15.2385C14.5998 14.949 14.9313 14.469 15.2688 13.9965C15.5088 13.6575 15.8118 13.6155 16.1298 13.7355C16.4538 13.848 18.1683 14.6955 18.5208 14.871C18.8733 15.048 19.1058 15.132 19.1913 15.2805C19.2753 15.429 19.2753 16.1265 18.9858 16.9455Z" fill="#39AC11"/>
</svg>
