<svg width="40" height="40" viewBox="0 0 40 40" fill="none" xmlns="http://www.w3.org/2000/svg">
<circle cx="20" cy="20" r="20" fill="white" fill-opacity="0.38"/>
<g clip-path="url(#clip0_1855_1561)">
<path d="M20.0025 10H19.9975C14.4838 10 10 14.485 10 20C10 22.1875 10.705 24.215 11.9037 25.8612L10.6575 29.5763L14.5013 28.3475C16.0825 29.395 17.9688 30 20.0025 30C25.5162 30 30 25.5138 30 20C30 14.4863 25.5162 10 20.0025 10Z" fill="#FAFAFA"/>
<path d="M25.8217 24.1212C25.5804 24.8025 24.6229 25.3675 23.8592 25.5325C23.3367 25.6437 22.6542 25.7325 20.3567 24.78C17.4179 23.5625 15.5254 20.5762 15.3779 20.3825C15.2367 20.1887 14.1904 18.8012 14.1904 17.3662C14.1904 15.9312 14.9192 15.2325 15.2129 14.9325C15.4542 14.6862 15.8529 14.5737 16.2354 14.5737C16.3592 14.5737 16.4704 14.58 16.5704 14.585C16.8642 14.5975 17.0117 14.615 17.2054 15.0787C17.4467 15.66 18.0342 17.095 18.1042 17.2425C18.1754 17.39 18.2467 17.59 18.1467 17.7837C18.0529 17.9837 17.9704 18.0725 17.8229 18.2425C17.6754 18.4125 17.5354 18.5425 17.3879 18.725C17.2529 18.8837 17.1004 19.0537 17.2704 19.3475C17.4404 19.635 18.0279 20.5937 18.8929 21.3637C20.0092 22.3575 20.9142 22.675 21.2379 22.81C21.4792 22.91 21.7667 22.8862 21.9429 22.6987C22.1667 22.4575 22.4429 22.0575 22.7242 21.6637C22.9242 21.3812 23.1767 21.3462 23.4417 21.4462C23.7117 21.54 25.1404 22.2462 25.4342 22.3925C25.7279 22.54 25.9217 22.61 25.9929 22.7337C26.0629 22.8575 26.0629 23.4387 25.8217 24.1212Z" fill="#39AC11"/>
</g>
<defs>
<clipPath id="clip0_1855_1561">
<rect width="20" height="20" fill="white" transform="translate(10 10)"/>
</clipPath>
</defs>
</svg>
